# xmcd
#
# Track frame offsets: 
#        150
#        30904
#        41964
#        58988
#        65917
#        84096
#        102186
#        119381
#        135506
#        155042
#        172536
#        189711
#        207240
#        232392
#
# Disc length: 3205 seconds
#
# Revision: 2
# Processed by: cddbd v1.5.2PL0 Copyright (c) Steve Scherf et al.
# Submitted via: ExactAudioCopy v0.99pb5
#
DISCID=c40c830e
DTITLE=Snowy White And The White Flames - Realistic
DYEAR=2011
DGENRE=BluesRock
TTITLE0=On The Edge Of Something
TTITLE1=Ongoing....
TTITLE2=Riding The Blues
TTITLE3=Team Spirit
TTITLE4=Got To Set Me Free
TTITLE5=Whiteflames Blues
TTITLE6=Careful Now
TTITLE7=Finding My Way Home
TTITLE8=Another Story Told
TTITLE9=Towards Higher Ground
TTITLE10=Love Is Not Possession
TTITLE11=Long Way Out (part 1)
TTITLE12=Long Way Out (part 2)
TTITLE13=Outro Peace
EXTD=
EXTT0=
EXTT1=
EXTT2=
EXTT3=
EXTT4=
EXTT5=
EXTT6=
EXTT7=
EXTT8=
EXTT9=
EXTT10=
EXTT11=
EXTT12=
EXTT13=
PLAYORDER=
